<?xml version="1.0" encoding="utf-8"?>
<!-- Generator: Adobe Illustrator 18.0.0, SVG Export Plug-In . SVG Version: 6.00 Build 0)  -->
<!DOCTYPE svg PUBLIC "-//W3C//DTD SVG 1.1//EN" "http://www.w3.org/Graphics/SVG/1.1/DTD/svg11.dtd">
<svg version="1.1" id="Layer_1" xmlns="http://www.w3.org/2000/svg" xmlns:xlink="http://www.w3.org/1999/xlink" x="0px" y="0px"
	 viewBox="0 0 200 200" enable-background="new 0 0 200 200" xml:space="preserve">
<g>
	<path fill="#B30000" d="M17.533,100.166c0.174,0.111,0.44,0.284,0.777,0.505c0.059-0.089,0.101-0.038,0.134,0.089
		c0.124,0.081,0.26,0.172,0.403,0.267c0.012-0.734,0.048-1.456,0.101-2.146c-0.696,0.475-1.185,0.799-1.448,0.971
		C17.513,99.951,17.523,100.055,17.533,100.166z M21.037,102.523c0.094,0.066,0.187,0.131,0.283,0.198
		c0.225-1.368,0.294-4.666,0.531-5.873c-0.584,0.418-1.12,0.799-1.601,1.133C20.419,99.062,20.853,101.316,21.037,102.523z
		 M142.812,66.198c-0.093-0.1-0.187-0.2-0.28-0.298c0.058,0.703,0.128,1.295,0.217,1.682
		C142.794,67.218,142.811,66.745,142.812,66.198z M182.499,99.995h-0.017c-0.493-0.309-16.967-10.694-35.973-29.965
		c-0.038,1.679-0.42,1.485-0.433-0.442c-0.389-0.396-0.777-0.793-1.167-1.196c0.011,2.113,0.035,4.09,0.078,5.885
		c-0.368-0.332-0.431-4.672-0.632-6.461c-0.123-0.129-0.246-0.256-0.369-0.384c-0.012,0.048-0.024,0.092-0.037,0.151v-0.189
		c-0.18-0.189-0.36-0.373-0.54-0.564c-0.006,1.379-0.071,2.39-0.26,2.425c0.121,1.356,0.121,6.174,0,7.53
		c-0.427,0.017-0.571-2.938-0.559-7.53c-0.327-0.352-0.323,2.754-0.718,1.671c-0.144-1.295-0.295-3.6-0.363-6.119
		c-0.039-0.042-0.078-0.085-0.117-0.126v0.389h-0.24v-0.65c-0.298-0.321-0.596-0.644-0.894-0.969
		c0.098,1.233,0.146,2.993,0.174,4.967h-0.32c-0.063-1.594-0.114-3.316-0.143-5.28c-0.193-0.212-0.385-0.428-0.578-0.64
		c-0.025,0.028-0.05,0.06-0.078,0.064c-0.002-0.054-0.004-0.104-0.006-0.157c-0.076-0.084-0.152-0.169-0.228-0.253
		c0.026,1.794,0.124,2.828,0.075,5.431c-0.861-3.85-0.929,4.454-1.678,4.182c0.045-2.715-0.055-3.892-0.081-5.859
		c-0.064,0.161-0.08,0.842-0.16,0.839c-0.022,1.376-0.013,6.747-0.24,8.367c-0.671-0.223-1.098-3.018-1.279-8.367
		c-0.201,4.912-0.674,1.831-1.2,3.347c0.061,3.176-0.164,4.592-0.399,6.695c0.274,1.877,0.437,4.916,0.72,6.695
		c-0.045,2.327-0.329,2.141-0.32,5.021c-0.057,2.27,0.377-0.597,0.32,1.674c-0.154,3.596-0.475,3.256-0.879,2.511
		c-0.136,3.932,0.375,1.09,0.239,5.021c-0.407-0.747-0.599-3.766-0.958-5.021c0.009-2.41-0.043-5.479,0.08-6.695
		c0.322-0.859,0.355,1.301,0.479,2.51c0.071-2.278-0.122-4.7-0.079-8.369c-0.547,0.433-0.327-7.176-0.799-7.529
		c0.131-5.982,0.032-4.204-0.08-10.042c0.404-0.954,0.516-4.975,0.857-6.586c-0.075-0.089-0.15-0.177-0.224-0.266
		c-0.078,0.323-0.181,0.399-0.314,0.154c-0.002-0.186-0.005-0.353-0.006-0.533c-0.366-0.439-0.732-0.885-1.097-1.329
		c0.065,1.516,0.158,2.689,0.305,3.534c0.012,3.198-0.379,2.181-0.399,5.025c-0.17,0.387-0.151-1.2-0.16-2.513
		c-0.132,1.964-0.467,1.814-0.8,1.674c0.026-3.419-0.035-6.385-0.134-9.178c-0.259-0.321-0.518-0.64-0.777-0.964
		c-0.038,0.084-0.078,0.132-0.127,0.101c-0.002-0.095-0.003-0.178-0.005-0.266c-0.11-0.137-0.22-0.275-0.329-0.413
		c-0.06,0.055-0.109-0.008-0.147-0.186c-1.044-1.315-2.083-2.653-3.116-4.018v3.208h-0.32c-0.021-1.562,0.001-2.689,0.045-3.577
		c-1.395-1.851-2.776-3.749-4.142-5.689c-0.019,0.028-0.038,0.055-0.058,0.058c-0.029-0.048-0.056-0.135-0.081-0.255
		C113.463,28.66,105.756,15.113,99.881,0C86.856,34.869,62.346,62.148,43.392,79.347v2.224c-0.288,0.155-0.486-0.419-0.6-1.682
		c-3.233,2.915-6.297,5.535-9.105,7.842c0.008,0.648,0.006,1.373-0.009,2.21h-0.612c-0.001-0.665-0.019-1.195-0.045-1.666
		c-0.493,0.402-0.977,0.794-1.453,1.176c0.023,0.151,0.045,0.315,0.065,0.49v5.021c-0.274,0.828-0.538,1.723-0.92,1.671
		c-0.028-2.754,0.114-4.122,0.121-6.594c-0.602,0.481-1.186,0.94-1.756,1.387v0.189h-0.243c-1.389,1.084-2.681,2.069-3.86,2.947
		c0.029,0.682,0.065,1.37,0.116,2.07c-0.339,0.94-0.366-0.659-0.445-1.825c-0.033,0.025-0.066,0.049-0.099,0.074
		c-0.194,3.642-0.757,4.902-1.295,3.428c-0.248,0.479,0.048,5.412-0.308,5.018c-0.329-1.273-0.616-2.898-0.623-6.816
		c-0.038,0.028-0.073,0.052-0.111,0.08c0.006,0.015,0.012,0.025,0.019,0.041c0.116,3.84-0.496,4.371,0.205,4.185
		c0.026,1.077,0.026,1.944,0.013,2.699c0.199,0.141,0.402,0.286,0.611,0.436c0.107-1.533,0.258-2.703,0.602-2.296
		c0.091,0.484,0.16,1.602,0.194,2.872c0.515,0.375,1.057,0.773,1.622,1.193c-0.033-0.74-0.058-1.544-0.078-2.394
		c0.33-0.183,0.433,1.484,0.819,0.837v2.11c0.371,0.278,0.752,0.565,1.141,0.862c-0.009-0.37-0.015-0.794-0.018-1.298
		c0.134-1.075,0.377-1.075,0.511,0c-0.074-2.557,0.177-2.464,0.102-5.021h0.614v5.859c-0.146-0.164-0.319,0.393-0.489,1.009
		c0.918,0.703,1.884,1.458,2.89,2.255c-0.114-2.202-0.17-4.509-0.151-6.614h-0.409v-3.344c0.352-0.651,0.489,0.464,0.409,3.344
		c0.474,1.424,0.822,3.863,1.047,7.326c3.134,2.513,6.646,5.462,10.396,8.828c-0.006-0.568-0.003-1.218,0.008-1.928h0.306
		c0.055,0.617,0.094,1.356,0.107,2.307C61.361,136.706,85.844,163.891,99.881,200c6.096-16.316,14.706-30.971,24.085-43.708
		c4.507-6.121,9.192-11.8,13.86-17.007c-0.206-2.634-0.308-6.62-0.273-9.777c0.085-7.552,0.544-8.002,1.2-4.182
		c0.047,3.001-0.094,4.046-0.16,5.855c0.022,1.726,0.297,0.789,0.32,2.513c0.021,2.57-0.159,3.039-0.23,4.644
		c21.939-24.216,43.255-37.981,43.8-38.331h0.016c0,0-0.006-0.005-0.008-0.005C182.493,99.998,182.497,99.995,182.499,99.995z
		 M27.953,97.472v-3.347h0.41C28.41,96.745,28.272,97.859,27.953,97.472z M28.976,105.005H28.67v-2.513h0.306V105.005z
		 M32.861,98.31h-0.307v-2.513h0.307V98.31z M33.373,104.165h-0.41v-3.347C33.282,100.432,33.42,101.55,33.373,104.165z
		 M34.497,101.657h-0.306v-2.513h0.306V101.657z M35.008,105.839h-0.306v-2.511h0.306V105.839z M37.462,110.86h-0.308v-2.511h0.308
		V110.86z M40.12,90.777c-0.299-0.06-0.576-0.304-0.511-3.347h0.511V90.777z M41.143,114.208h-0.307v-2.51h0.307V114.208z
		 M40.937,97.472v-3.347h0.513C41.52,97.22,41.287,97.821,40.937,97.472z M42.062,115.047h-0.409v-4.187h0.409V115.047z
		 M43.392,105.005c0.161,0.069,0.39-0.405,0.409,0.834C43.912,108.778,43.174,108.08,43.392,105.005z M44.517,85.756
		c-0.436,0.493-0.717-0.276-0.614-4.185C44.339,81.078,44.619,81.846,44.517,85.756z M122.767,56.702h0.32v3.347
		C122.811,60.698,122.705,59.585,122.767,56.702z M120.929,96.868h0.24v3.348C120.902,101.058,120.907,99.057,120.929,96.868z
		 M119.889,48.333c-0.275,0.65-0.382-0.468-0.319-3.347h0.319V48.333z M121.089,119.464c-0.37-0.118-0.238-6.775-0.16-9.203h0.32
		C121.401,113.393,121.505,118.633,121.089,119.464z M121.569,93.522h-0.24v-2.508h0.24V93.522z M121.889,75.946h-0.32
		c-0.038-2.617,0.069-3.735,0.32-3.344V75.946z M122.128,54.189h-0.239v-2.508h0.239V54.189z M122.367,58.374h0.24v2.513h-0.24
		V58.374z M122.847,100.217h-0.24v-2.51h0.24V100.217z M122.847,85.991h-0.24V83.48h0.24V85.991z M123.166,65.905
		c-0.322,0.94-0.395-2.568-0.238-4.182h0.238V65.905z M123.486,58.374h-0.24v-2.511h0.24V58.374z M131.4,69.255
		c0.011,2.66,0.18,3.68,0.16,6.692c-0.16,0.014-0.103,2.285-0.32,1.677c-0.216-1.65-0.441-3.187-0.479-6.698
		C131.133,72.033,131.028,68.147,131.4,69.255z M131.16,80.97v2.51h-0.24v-2.51H131.16z M130.121,68.418
		c0.126,0.069,0.305-0.402,0.32,0.837C130.528,72.194,129.949,71.495,130.121,68.418z M128.922,61.723h0.399
		c0.058,3.382-0.076,4.777-0.399,4.182V61.723z M128.523,50.846h0.24v2.508h-0.24V50.846z M127.802,61.723h0.401
		C128.364,67.177,127.641,67.177,127.802,61.723z M128.203,84.319h-0.32V80.97C128.132,80.583,128.24,81.698,128.203,84.319z
		 M127.484,51.681h0.239v2.508h-0.239V51.681z M127.643,69.255c-0.062,3.152,0.097,3.998,0.079,6.692
		c-0.301-0.468-0.512-1.88-0.479-5.856C127.336,69.388,127.457,68.986,127.643,69.255z M127.084,63.395h0.239v3.348
		C127.057,67.585,127.062,65.584,127.084,63.395z M126.604,50.846h0.24c0.066,0.968,0.104,2.239,0.08,4.182h-0.32V50.846z
		 M126.044,64.231c0.022,3.02,0.02,5.79-0.319,5.024v-5.024H126.044z M125.644,52.515h0.24v2.513h-0.24V52.515z M124.446,108.589
		c-0.246-0.608-0.236,1.442-0.48,0.834c-0.004-3.11,0.238-3.64,0.48-4.185V108.589z M124.446,66.743h-0.241v-2.513h0.241V66.743z
		 M124.606,56.702h-0.24v-2.513h0.24V56.702z M124.766,86.827h0.24c0.092,0.992,0.09,2.96,0.081,5.021
		C124.691,93.182,124.585,88.962,124.766,86.827z M125.086,139.549c-0.257,0.233-0.292-3.666-0.161-5.021h0.24
		C125.119,135.998,125.263,139.443,125.086,139.549z M125.326,126.159v-3.347h0.399
		C125.781,125.907,125.599,126.509,125.326,126.159z M126.124,134.528h-0.24v-2.51h0.24V134.528z M126.124,129.507h-0.24v-2.51h0.24
		V129.507z M126.124,119.464h-0.24v-2.508h0.24V119.464z M125.964,100.217c-0.286-0.693-0.296-7.572-0.16-10.042h0.32
		C126.303,93.798,126.082,97.274,125.964,100.217z M125.885,72.603c0.382-0.934,0.368,2.281,0.399,5.021
		C125.911,78.462,125.838,76.163,125.885,72.603z M126.683,68.418c-0.296,0.582-0.352-1.326-0.319-4.187h0.319V68.418z
		 M127.323,96.868c-0.023,2.823-0.039,5.72-0.16,7.533c-0.298-0.786-0.23-5.405-0.32-8.367
		C127.04,95.922,127.229,95.908,127.323,96.868z M127.004,120.303v-4.185C127.524,114.427,127.524,121.994,127.004,120.303z
		 M127.403,95.196C126.511,85.415,128.427,86.579,127.403,95.196L127.403,95.196z M127.722,106.076
		c0.094-0.702,0.215-1.104,0.399-0.839v3.351h-0.399V106.076z M128.203,137.036c-0.345-0.052-0.24-5.297-0.161-7.529h0.32
		C128.489,131.251,128.516,137.31,128.203,137.036z M128.282,122.812c-0.061-3.428,0.258-2.883,0.48-3.348
		C128.823,122.892,128.504,122.347,128.282,122.812z M128.762,63.395c-0.34,0.77-0.341-2.004-0.32-5.021
		C128.782,57.606,128.783,60.38,128.762,63.395z M129.241,121.977h-0.319v-3.347C129.172,118.242,129.278,119.357,129.241,121.977z
		 M129.402,91.013c0.238-3.875,0.116-9.567-0.48-9.208c0.24-5.024,0.406-10.807,1.2-10.042
		C130.601,79.112,130.364,91.499,129.402,91.013z M129.641,106.076h0.319v3.347C129.71,109.811,129.604,108.693,129.641,106.076z
		 M129.801,124.485c0.092-0.702,0.214-1.103,0.399-0.839v3.351h-0.399V124.485z M129.96,130.346
		c0.117,0.458,0.415-0.978,0.401,0.834C130.45,134.049,129.779,133.662,129.96,130.346z M130.441,144.57h-0.24v-2.508h0.24V144.57z
		 M130.28,97.707h0.4c0.191,2.729,0.621,10.389-0.08,10.882C130.6,103.846,130.244,102.829,130.28,97.707z M131.16,128.672h-0.24
		v-2.513h0.24V128.672z M131.24,95.196c-0.277-1.556-0.419-4.543-0.4-9.205c0.117-1.229,0.525-1.229,0.64,0
		C131.445,89.926,131.486,92.207,131.24,95.196z M131.799,126.998h-0.24v-2.513h0.24V126.998z M131.959,92.686
		c-0.267,0.839-0.263-1.16-0.24-3.347h0.24V92.686z M136.754,78.459h0.319v5.859C136.64,85.87,136.586,80.639,136.754,78.459z
		 M135.716,74.277h0.239v2.508h-0.239V74.277z M134.916,110.261v2.51h-0.239v-2.51H134.916z M134.516,101.055h0.24v3.347
		C134.489,105.24,134.494,103.242,134.516,101.055z M133.397,104.402v2.51h-0.24v-2.51H133.397z M132.679,96.868v-7.529
		c0.576,0.37,0.428,4.608,0.478,9.206C132.906,98.945,132.845,97.351,132.679,96.868z M133.238,86.827h-0.32
		c-0.051-1.914-0.159-5.045,0-6.695h0.32C133.397,81.781,133.289,84.913,133.238,86.827z M132.997,75.111
		c-0.043,1.216,0.094,4.327-0.079,4.184c-0.269,0.862-0.125-2.6-0.16-4.184H132.997z M132.358,60.049
		c0.154-1.628,0.489-0.874,0.399,2.513h-0.399V60.049z M132.438,109.423c0.334-1.732,0.301,4.56,0.16,5.021
		C132.266,116.177,132.298,109.88,132.438,109.423z M132.679,118.63h0.24c0.092,0.989,0.09,2.96,0.079,5.016
		C132.603,124.983,132.497,120.765,132.679,118.63z M132.758,142.899c-0.01-2.064-0.011-4.035,0.081-5.024h0.24
		C133.258,140.01,133.152,144.23,132.758,142.899z M133.637,127.833h-0.24v-2.508h0.24V127.833z M133.957,127.833h-0.24v-2.508h0.24
		V127.833z M133.957,106.076c0.22,0.762,0.561,0.258,0.72,1.674C134.675,110.796,133.769,110.429,133.957,106.076z M134.278,111.097
		h0.239v2.513h-0.239V111.097z M134.837,141.226h-0.32v-4.19h0.32V141.226z M135.156,125.325h-0.24v-2.513h0.24V125.325z
		 M135.236,82.644c-0.34,0.765-0.341-2.006-0.32-5.021h0.161C135.333,77.39,135.366,81.288,135.236,82.644z M136.435,138.713
		c-0.457,0.402-0.573-4.651-0.399-8.367h0.319C136.497,131.928,136.413,135.869,136.435,138.713z M137.474,130.346
		c-0.096,2.623-0.397,3.098-0.72,3.347c-0.21-4.218-0.19-10.828-0.319-15.901c-0.263,0.034-0.399,1.411-0.72,0.839
		c-0.197-5.417-0.633-19.864,0.32-22.596c0.044-3.82-0.141-5.214-0.081-9.208c-0.151-1.478-0.511-0.779-0.638-2.508
		c0.151-4.099-0.035-5.262-0.081-9.208c0.547-0.422,0.63,4.009,0.719,8.369h0.4c-0.143,11.467,0.626,20.303,0.399,32.638
		c0.405,0.937,0.871,6.793,0.48,10.88C137.21,129.196,137.544,127.655,137.474,130.346z M137.554,96.868h-0.399
		c-0.025-1.938,0.013-3.21,0.08-4.182C137.529,92.099,137.587,94.01,137.554,96.868z M137.874,118.63h-0.24v-2.513h0.24V118.63z
		 M138.673,80.132h0.399c-0.098,4.4,0.475,6.136,0.24,9.208c-0.214-1.677-0.285-4.829-0.719-4.185
		C138.535,82.595,138.731,82.694,138.673,80.132z M138.593,91.013h0.32v3.347C138.637,95.01,138.531,93.892,138.593,91.013z
		 M138.913,124.485c-0.378,0.608-0.352-3.026-0.4-5.855C138.868,118.26,138.948,120.768,138.913,124.485z M139.393,121.977h-0.32
		c-0.037-2.62,0.069-3.735,0.32-3.347V121.977z M139.791,133.693h-0.24v-2.513h0.24V133.693z M139.312,69.255
		c-0.061-3.427,0.257-2.881,0.479-3.35C139.853,69.333,139.534,68.788,139.312,69.255z M140.99,84.319h-0.239v-2.513h0.239V84.319z
		 M141.31,72.603h0.32v3.344C141.355,76.599,141.248,75.483,141.31,72.603z M141.63,104.402h-0.239v-2.511h0.239V104.402z
		 M141.79,98.546c-0.273,0.35-0.457-0.255-0.399-3.35h0.399V98.546z M141.71,82.644v-3.35c0.133,0,0.266,0.003,0.401,0
		C142.165,82.393,141.983,82.995,141.71,82.644z M142.67,121.138v-3.347h0.32C143.026,120.412,142.919,121.527,142.67,121.138z
		 M142.67,112.771v-1.674c0.078-2.244,0.364-2.313,0.24-6.695c0.243-0.604,0.292,0.855,0.479,0.836
		C143.489,110.978,143.047,114.741,142.67,112.771z M143.868,119.464h-0.319v-3.347
		C143.798,115.731,143.905,116.849,143.868,119.464z M144.986,91.848h0.321v4.187h-0.321V91.848z M144.188,101.055
		c0.127,0.069,0.306-0.402,0.319,0.836C144.595,104.829,144.017,104.133,144.188,101.055z M144.507,125.325
		c-0.268,0.858-0.124-2.603-0.16-4.187h0.24C144.543,122.355,144.68,125.463,144.507,125.325z M145.307,109.423
		c-0.341,0.493-0.561-0.276-0.48-4.185C145.182,104.583,145.337,106.03,145.307,109.423z M148.743,121.977h-0.239v-2.513h0.239
		V121.977z M149.143,88.501c0.115,0.458,0.413-0.978,0.399,0.839C149.633,92.207,148.961,91.817,149.143,88.501z M149.783,107.75
		h-0.24v-2.513h0.24V107.75z M154.898,90.175c-0.458-1.301-0.31,1.195-0.799,0.839v-5.022c0.32-0.279,0.444,1.493,0.799,0.836
		V90.175z M138.716,61.752c-0.137-0.154-0.274-0.304-0.412-0.458c-0.02,1.08-0.043,2.31-0.032,3.775
		C138.529,65.088,138.585,63.025,138.716,61.752z"/>
	<linearGradient id="SVGID_1_" gradientUnits="userSpaceOnUse" x1="98.1723" y1="45.2236" x2="102.3702" y2="199.7742">
		<stop  offset="0" style="stop-color:#FFFAE0"/>
		<stop  offset="1" style="stop-color:#FFDBA9"/>
	</linearGradient>
	<path fill="url(#SVGID_1_)" d="M122.487,54.086c10.91,22.015,49.34,45.605,49.34,45.605h2.752
		C167.634,95.759,135.46,75.413,122.487,54.086z M82.976,45.96c-21.361,30.274-51.306,49.8-58.252,53.731h3.079
		C27.804,99.691,64.498,77.151,82.976,45.96z M99.979,11.035c0,0-7.47,19.756-16.709,34.401c0,0,13.662-21.524,16.709-31.059V11.035
		z M161.847,99.997c-0.692-0.435-43.448-27.382-61.965-75.014c-17.236,46.14-61.282,74.575-61.964,75.014h-0.012
		c0,0,0.005,0.001,0.005,0.005l0.007,0.003c0.693,0.433,43.447,27.38,61.964,75.013c17.237-46.14,61.283-74.573,61.966-75.013h0.012
		l-0.006-0.003c0.001-0.003,0.005-0.005,0.005-0.005H161.847z M132.512,85.242c0.646-2.086,0.686-3.903,0.319-5.448
		c5.912,7.42,12.306,15.523,8.231,22.545c-5.038,8.679-13.053,1.849-13.053,1.849c1.221-0.413,1.722-1.909,1.722-1.909
		c-12.217-3.033-2.179-12.158,0.456-7.163c2.636,4.996,11.214,1.341,6.436-5.158c-1.325-1.802-3.073-2.6-4.895-2.663
		C132.014,86.658,132.282,85.987,132.512,85.242z M135.158,95.514c0,0-2.893,1.501-3.588-1.032
		c-0.761-2.777-3.587-2.212-3.587-2.212C134.274,89.96,135.158,95.514,135.158,95.514z M127.27,89.928c0,0,4.945-7.503-4.456-9.96
		c-0.746-0.195-1.594-1.914-1.114-3.276c0.638-1.818,4.324-2.424,6.879-0.197C131.136,78.723,131.856,85.408,127.27,89.928z
		 M128.882,74.696c0.01,0.014,0.02,0.028,0.029,0.04c-0.702-0.379-1.451-0.651-2.212-0.822l-0.783-2.517
		C126.907,72.526,127.897,73.627,128.882,74.696z M125.83,73.765c-0.835-0.095-1.664-0.064-2.447,0.1l1.564-2.938L125.83,73.765z
		 M124.607,69.89l-1.812,3.407l-1.011-6.644c0.005,0.005,0.009,0.008,0.015,0.014l-0.016-0.023l-0.025-0.161
		C122.706,67.645,123.655,68.783,124.607,69.89z M122.148,74.269c-1.183,0.519-2.155,1.411-2.715,2.695
		c-0.183,0.092-0.373,0.204-0.567,0.333l2.262-9.728L122.148,74.269z M117.278,82.867c-0.116-2.631,0.823-4.024,1.784-4.764
		c-0.313,1.49-0.157,3.371,0.674,5.666c3.533,9.756-10.148,7.085-10.97,3.319c1.581,1.413,2.93,1.871,4.004,1.871
		c0.562,0,1.05-0.123,1.457-0.296C116.358,87.757,117.374,85.062,117.278,82.867z M120.726,65.83l-2.365,10.169l-1.272-9.298
		C117.707,65.963,119.002,64.865,120.726,65.83z M117.865,78.18c-0.826,0.949-1.476,2.422-1.374,4.721
		c0.098,2.209-1.008,4.374-2.573,5.038c-0.021,0.009-0.044,0.011-0.064,0.02l2.814-18.538L117.865,78.18z M116.264,66.84
		l-2.676,17.629l-0.855-23.815C113.887,63.292,115.022,65.515,116.264,66.84z M112.934,88.151c-1.239,0.068-2.623-0.631-4.074-2.061
		c0.134-0.315,0.361-0.633,0.719-0.945c0,0-0.278-0.284-0.835-0.579l3.28-21.727L112.934,88.151z M111.866,58.617l-3.293,21.814
		l-0.716-19.667c1.267-2.783,1.574-6.013,0.929-9.447C109.894,53.768,110.897,56.292,111.866,58.617z M77.649,74.306
		c-0.142-0.025-0.282-0.046-0.419-0.066c4.446-0.189,11.654-0.158,17.655,1.444c0.377,0.207,5.365,3.024,9.874,8.344
		c-0.438,0.069-0.905,0.174-1.405,0.33C99.221,85.649,93.365,75.177,77.649,74.306z M85.724,88.667
		c0.015,0.937-0.141,1.55-0.47,1.822c-0.685,0.564-2.352-0.052-4.465-0.832c-3.64-1.341-8.628-3.179-14.064-1.246
		c-2.522,0.899-4.466,2.121-5.969,3.488c0.631-0.799,1.169-1.669,1.58-2.626C66.461,79.645,83.546,78.462,85.724,88.667z
		 M103.131,81.11c-0.853-0.848-1.695-1.616-2.494-2.29l1.266-1.898L103.131,81.11z M102.391,75.791
		c1.093-0.442,1.802-1.083,2.252-1.673l-1.025,5.858L102.391,75.791z M100.028,78.318c-1.108-0.9-2.103-1.619-2.9-2.156
		c0.779,0.12,1.493,0.178,2.135,0.178c0.872,0,1.617-0.101,2.262-0.267L100.028,78.318z M103.798,81.787l0.303-0.015l3.091-17.65
		l0.733,20.103c-0.582-0.19-1.32-0.319-2.216-0.287C105.079,83.173,104.438,82.457,103.798,81.787z M105.416,69.706
		c-0.362-1.382-1.224-2.629-2.438-3.351c1.42-0.902,2.649-2.061,3.627-3.437L105.416,69.706z M77.586,67.02
		c5.547-6.678,10.975-14.216,15.722-22.55c1.713-2.445,5.961-7.139,10.504-1.688c1.067,1.281,2.034,2.781,2.927,4.399
		c1.946,4.807,2.112,9.401,0.458,13.136l-0.136-0.009l-0.086,0.493c-0.011,0.023-0.021,0.049-0.034,0.072
		c-1.725,3.431-4.935,5.83-8.807,6.586c-5.377,1.049-10.873,1.828-13.897,2.224c6.386-1.722,15.681-2.577,17.903-12.355
		c0.901-3.963-0.498-9.733-2.851-10.614c-3.931-1.474-9.823,4.383-10.811,11.008c-1.671,11.204,12.483,2.851,6.978-1.866
		c0,0,1.671-1.769,3.342-0.591c1.671,1.18,0.491,8.454-6.388,11.106c-6.88,2.656-5.897-3.635-5.897-3.635s-3.212,1.441-2.883,5.308
		c0,0-8.518,5.11-5.963-1.115L77.586,67.02z M81.452,72.587c2.78-0.22,3.371-1.524,2.209-2.038
		c2.829-0.362,8.796-1.181,14.625-2.318c1.484-0.29,2.873-0.816,4.133-1.53l-0.092,0.184c1.984,0.992,3.021,3.715,2.219,5.826
		c-1.026,2.702-4.544,3.533-9.412,2.226c-7.26-1.952-16.263-1.627-20.182-1.358c-0.008,0-0.015-0.003-0.022-0.003
		C76.202,73.277,78.49,72.822,81.452,72.587z M60.105,85.351c2.366-2.175,4.832-4.551,7.348-7.119
		c2.116-1.478,7.459-3.592,9.772-0.902c0,0,0.211-1.258-0.293-2.328c2.212,0.293,5.393,1.22,5.8,4.104l0.021-0.003
		c0.028,0.774-0.455,1.52-2.433,1.52c-4.128,0-6.782-2.359-13.563,0.197c0,0-1.966,5.896-5.406,6.781
		C59.121,88.175,59.537,86.559,60.105,85.351z M42.183,100.018c0.831-0.091,2.358-0.29,4.226-0.687l-1.021,2.987
		C44.159,101.41,43.083,100.643,42.183,100.018z M46.05,102.812l0.928-2.717l1.322,4.429
		C47.506,103.909,46.76,103.344,46.05,102.812z M47.497,99.085c1.256-0.299,2.617-0.685,4.001-1.18l-2.226,7.123L47.497,99.085z
		 M49.868,105.755l2.167-6.933l1.117,9.604C52.006,107.471,50.91,106.581,49.868,105.755z M54.168,109.28l1.577-6.802
		c-0.024,0.332-0.033,0.613-0.035,0.839c-0.508,3.282,0.154,6.266,0.62,7.816C55.592,110.49,54.874,109.877,54.168,109.28z
		 M53.815,107.322l-1.147-9.86c1.325-0.531,2.644-1.164,3.878-1.924L53.815,107.322z M57.499,94.909
		c0.592-0.413,1.155-0.86,1.685-1.339c-1.033,1.279-1.763,2.614-2.275,3.887L57.499,94.909z M66.989,89.152
		c5.168-1.84,10-0.058,13.528,1.242c2.441,0.9,4.205,1.55,5.236,0.7c0.222-0.181,0.389-0.432,0.513-0.74
		c2.348,4.826,7.842-6.832,1.369-11.323c3.513,1.014,8.5,2.878,12.59,6.064c5.932,4.617,15.098,9.627,22.349,8.968
		c-0.356,1.035-0.52,2.133-0.429,3.251c0.596,7.348,10.36,15.026,18.242,7.194c1.011-1.006,1.78-2.073,2.364-3.162
		c-1.018,3.354-3.562,7.583-9.839,9.816c-5.168,1.842-10,0.058-13.528-1.243c-2.44-0.9-4.203-1.55-5.236-0.702
		c-0.222,0.183-0.389,0.433-0.514,0.742c-2.347-4.827-7.841,6.829-1.37,11.323c-3.513-1.014-8.498-2.88-12.588-6.062
		c-5.933-4.618-15.099-9.627-22.35-8.97c0.356-1.035,0.52-2.133,0.429-3.252c-0.597-7.348-10.36-15.026-18.242-7.194
		c-0.947,0.942-1.68,1.938-2.25,2.955C58.346,95.431,60.914,91.315,66.989,89.152z M92.571,136.425l-0.742-20.383
		c0.602,0.215,1.391,0.37,2.363,0.335c0.535,0.65,1.077,1.261,1.622,1.842L92.571,136.425z M94.44,130.42
		c0.33,1.456,1.215,2.785,2.484,3.54c-1.481,0.942-2.76,2.159-3.758,3.612L94.44,130.42z M96.269,120.152l1.072,4.448
		c-1.069,0.472-1.75,1.129-2.17,1.72L96.269,120.152z M96.874,119.308c0.813,0.803,1.616,1.533,2.378,2.176l-1.362,2.043
		L96.874,119.308z M99.861,121.986c1.12,0.911,2.124,1.636,2.928,2.176c-1.849-0.284-3.308-0.21-4.43,0.078L99.861,121.986z
		 M95.142,116.288c0.438-0.071,0.906-0.175,1.405-0.332c4.133-1.29,9.989,9.177,25.698,10.052c0.146,0.025,0.286,0.045,0.425,0.064
		c-4.446,0.189-11.656,0.16-17.653-1.442C104.64,124.422,99.647,121.601,95.142,116.288z M114.179,111.651
		c-0.015-0.94,0.14-1.554,0.469-1.825c0.686-0.564,2.353,0.052,4.464,0.831c3.641,1.344,8.627,3.179,14.065,1.247
		c2.521-0.897,4.466-2.12,5.967-3.486c-0.63,0.797-1.168,1.666-1.578,2.625C133.441,120.668,116.359,121.853,114.179,111.651z
		 M82.624,117.449c0.117,2.629-0.823,4.023-1.783,4.763c0.312-1.49,0.157-3.371-0.674-5.666c-3.533-9.756,10.148-7.085,10.97-3.319
		c-2.411-2.155-4.279-2.078-5.461-1.574C83.543,112.557,82.527,115.253,82.624,117.449z M67.39,115.072
		c-0.647,2.087-0.686,3.904-0.319,5.449c-5.912-7.42-12.305-15.525-8.23-22.545c5.036-8.679,13.052-1.849,13.052-1.849
		c-1.221,0.413-1.721,1.909-1.721,1.909c12.216,3.033,2.179,12.158-0.457,7.163c-2.635-4.995-11.214-1.342-6.435,5.158
		c1.325,1.802,3.072,2.6,4.895,2.662C67.888,113.656,67.62,114.33,67.39,115.072z M64.743,104.801c0,0,2.892-1.501,3.588,1.032
		c0.762,2.777,3.588,2.212,3.588,2.212C65.628,110.355,64.743,104.801,64.743,104.801z M72.632,110.387c0,0-4.945,7.503,4.456,9.96
		c0.746,0.195,1.593,1.912,1.114,3.276c-0.639,1.818-4.325,2.424-6.88,0.195C68.765,121.591,68.045,114.909,72.632,110.387z
		 M71.275,125.717c0.552,0.272,1.128,0.482,1.714,0.628l0.609,1.958C72.822,127.422,72.047,126.56,71.275,125.717z M73.867,126.517
		c0.885,0.124,1.771,0.109,2.603-0.06l-1.656,3.112L73.867,126.517z M75.323,130.288l1.643-3.09l0.941,6.183
		C77.047,132.327,76.186,131.295,75.323,130.288z M77.596,126.113c1.254-0.508,2.288-1.422,2.872-2.765
		c0.147-0.072,0.297-0.154,0.45-0.25l-2.285,9.828L77.596,126.113z M79.092,134.428l2.31-9.931l1.269,9.28
		C81.996,134.511,80.733,135.404,79.092,134.428z M81.893,122.292c0.893-0.941,1.624-2.447,1.517-4.878
		c-0.096-2.181,0.982-4.314,2.517-5.007l-2.833,18.669L81.893,122.292z M83.54,133.375l2.633-17.348l0.837,23.275
		C85.88,136.755,84.763,134.627,83.54,133.375z M86.823,112.175c1.274-0.132,2.71,0.564,4.219,2.049
		c-0.134,0.318-0.36,0.634-0.718,0.946c0,0,0.31,0.316,0.929,0.627l-0.214-0.012l-3.301,21.871L86.823,112.175z M87.954,141.498
		l3.235-21.435l0.72,19.782c-1.157,2.715-1.415,5.839-0.794,9.152C89.976,146.477,88.947,143.879,87.954,141.498z M122.526,132.547
		c-6.035,7.222-11.938,15.479-16.998,24.657c-2.082,2.373-5.657,4.866-9.439,0.327c-1.067-1.279-2.034-2.781-2.927-4.4
		c-1.912-4.726-2.108-9.248-0.543-12.947l0.081,0.006l0.054-0.298c0.068-0.151,0.132-0.303,0.207-0.45
		c1.724-3.43,4.935-5.832,8.807-6.586c5.374-1.049,10.868-1.826,13.891-2.222c-6.386,1.72-15.676,2.579-17.898,12.353
		c-0.901,3.961,0.498,9.731,2.85,10.615c3.932,1.474,9.824-4.383,10.812-11.008c1.671-11.206-12.482-2.851-6.978,1.868
		c0,0-1.671,1.768-3.341,0.588c-1.671-1.178-0.492-8.452,6.388-11.106c6.881-2.652,5.898,3.637,5.898,3.637s3.21-1.441,2.883-5.308
		C116.271,132.272,123.954,127.666,122.526,132.547z M118.449,127.727c-2.781,0.22-3.371,1.524-2.208,2.038
		c-2.829,0.361-8.797,1.181-14.625,2.318c-1.484,0.289-2.873,0.814-4.132,1.53l0.092-0.186c-1.984-0.992-3.022-3.714-2.219-5.824
		c0.387-1.02,1.13-1.772,2.166-2.244l0.024,0.098l0.098-0.147c1.705-0.726,4.161-0.726,7.123,0.068
		c7.261,1.951,16.268,1.626,20.185,1.356c0.005,0.001,0.012,0.003,0.018,0.005C123.7,127.038,121.412,127.492,118.449,127.727z
		 M140.082,114.256c-2.795,2.554-5.734,5.385-8.736,8.492c-2.499,1.324-6.693,2.537-8.669,0.237c0,0-0.211,1.256,0.293,2.327
		c-2.213-0.293-5.392-1.22-5.8-4.102l-0.021,0.003c-0.028-0.776,0.455-1.521,2.433-1.521c4.128,0,6.782,2.359,13.563-0.197
		c0,0,1.966-5.898,5.406-6.781C140.36,112.249,140.424,113.227,140.082,114.256z M140.719,106.746
		c3.098-3.84,3.456-8.188,3.474-9.747c0.022-0.14,0.038-0.28,0.055-0.419c0.679,2.485,1.567,5.73,1.855,6.752
		C144.161,104.207,142.284,105.326,140.719,106.746z M144.364,94.021c-0.071-2.239-0.554-4.105-0.879-5.124
		c1.324,1.153,2.596,2.23,3.814,3.235c-0.276,3.119-0.641,7.1-0.876,9.407C145.843,99.43,144.914,96.036,144.364,94.021z
		 M147.056,102.924c0.174-1.141,0.4-3.615,0.878-9.04l2.02,8.011C149.004,102.187,148.028,102.527,147.056,102.924z M148.566,93.17
		c1.32,1.071,2.551,2.035,3.7,2.914l-1.709,4.979L148.566,93.17z M151.228,101.527l1.515-4.413l1.193,3.777
		C153.1,101.06,152.187,101.267,151.228,101.527z M157.155,100.362c-0.628,0.078-1.464,0.2-2.441,0.379l-1.163-3.683
		c1.596,1.196,2.984,2.193,4.086,2.96C157.486,100.124,157.314,100.249,157.155,100.362z"/>
	<path fill="#B30000" d="M129.534,120.953l-0.144,0.117l0.099,0.12l0.143-0.117L129.534,120.953z M135.31,115.883
		c0.044,0.069-0.045,0.126,0.001,0.198c0.079-0.055,0.139,0.072,0.223-0.022C135.458,116.01,135.399,115.794,135.31,115.883z
		 M127.06,122.131c0.041,0.029,0.091-0.04,0.126,0.058l0.264-0.217c-0.098-0.195-0.222-0.127-0.323-0.296l-0.215,0.177
		C127.056,121.955,126.951,122.034,127.06,122.131z M132.647,113.058l-0.143,0.118l0.174,0.217l0.073-0.06
		C132.664,113.236,132.813,113.163,132.647,113.058z M143.42,104.511l0.144-0.117l-0.117-0.144l-0.144,0.118L143.42,104.511z
		 M128.03,116.265l-0.144,0.117l0.117,0.144l0.145-0.117L128.03,116.265z M133.452,111.203c-0.095,0.14-0.167,0.057-0.252,0.084
		l0.216,0.266l0.193-0.158L133.452,111.203z M132.31,112.253l-0.143,0.118l0.097,0.12l0.145-0.117L132.31,112.253z M120.483,120.782
		l-0.121,0.098l0.098,0.118l0.12-0.097L120.483,120.782z M151.532,93.78c-0.119,0.16-0.201-0.04-0.322,0.143
		c-0.026,0.163,0.112,0.57,0.367,0.501c-0.074-0.146,0.124-0.204,0.215-0.177c0.015-0.109-0.125-0.232-0.031-0.333
		C151.684,93.869,151.597,93.936,151.532,93.78z M132.956,109.369l0.118-0.097c-0.064-0.052-0.06-0.095,0.015-0.132l-0.098-0.118
		c-0.071,0.132-0.11-0.069-0.178,0.026c0.05,0.092,0.04,0.18-0.026,0.261C132.835,109.415,132.912,109.224,132.956,109.369z
		 M145.855,98.529c-0.134-0.071,0.069-0.109-0.026-0.177c-0.121-0.032-0.257,0.077-0.395,0.201l0.098,0.12
		C145.654,98.49,145.737,98.69,145.855,98.529z M128.976,111.057c-0.009-0.06,0.058-0.112-0.025-0.178l-0.121,0.097
		C128.877,111.012,128.916,111.147,128.976,111.057z M152.019,90.946c0.107,0.109,0.226,0.089,0.335,0.166l0.336-0.275l0.013-0.131
		l-0.157-0.19c-0.122,0.045-0.238,0.035-0.357,0.051C152.181,90.697,152.131,90.826,152.019,90.946z M145.989,95.263
		c0.069-0.043,0.127,0.045,0.197-0.001c-0.09-0.111,0.04-0.201-0.012-0.309C146.035,95.048,145.943,95.15,145.989,95.263z
		 M150.798,90.822c-0.095,0.141-0.167,0.055-0.25,0.086c0.07,0.117-0.089,0.21-0.1,0.319l0.157,0.192
		c0.051-0.065,0.095-0.062,0.131,0.012l0.337-0.275c-0.143-0.086-0.016-0.147-0.065-0.224
		C150.931,90.963,150.859,90.937,150.798,90.822z M143.982,95.941l-0.143,0.118l0.118,0.143l0.144-0.117L143.982,95.941z
		 M111.162,122.829c-0.102-0.169-0.217-0.18-0.349-0.037l0.156,0.192L111.162,122.829z M143.066,94.571
		c0.123-0.131,0.23-0.104,0.333-0.031l0.529-0.432c-0.028-0.164,0.101-0.313,0.179-0.467l-0.176-0.217
		c0.089-0.107-0.007-0.235-0.095-0.361l-0.192,0.157c0.032,0.069,0.171,0.149,0.133,0.212l-0.098,0.078
		c-0.056-0.158-0.141-0.045-0.208-0.111c0.077-0.08-0.014-0.177-0.104-0.273c0.181-0.084,0.001-0.206,0.205-0.287l-0.117-0.144
		c-0.168,0.069-0.328,0.052-0.479-0.049c-0.286,0.109-0.465,0.321-0.672,0.547c0.048,0.169,0.009,0.326-0.049,0.481
		c0.045,0.115,0.321,0.252,0.164,0.347l0.313,0.382C142.855,94.336,142.955,94.489,143.066,94.571z M141.145,95.057l-0.236-0.287
		l-0.193,0.157l0.276,0.335C141.093,95.199,141.001,95.117,141.145,95.057z M119.561,111.86l-0.215,0.177l0.117,0.146l0.215-0.177
		L119.561,111.86z M136.756,97.959l-0.117-0.144c-0.101,0.051-0.195,0.035-0.303,0.167c0.059,0.143,0.141,0.051,0.205,0.152
		L136.756,97.959z M122.695,109.185c0.137-0.109,0.263-0.127,0.382-0.071l0.527-0.43c-0.015-0.147,0.071-0.286,0.132-0.425
		c-0.111-0.192-0.229-0.481-0.45-0.553l-0.143,0.117c0.086,0.149,0.184,0.204,0.285,0.206c-0.077,0.038-0.164,0.186-0.234,0.152
		l-0.195-0.24c0.062-0.097,0.095-0.195,0.247-0.283l-0.175-0.217c-0.052,0.064-0.095,0.06-0.131-0.012
		c-0.216,0.167-0.41,0.135-0.614,0.178l-0.048,0.04c-0.028,0.209-0.242,0.401-0.348,0.602c0.111,0.318,0.27,0.683,0.594,0.875
		C122.58,109.159,122.698,109.049,122.695,109.185z M121.193,110.333l-0.145,0.117l0.157,0.192l0.144-0.118L121.193,110.333z
		 M143.239,92.431l0.12-0.098l-0.098-0.12l-0.12,0.098L143.239,92.431z M126.619,105.667c-0.056-0.038-0.098-0.2-0.166-0.104
		c0.044,0.069-0.045,0.126,0.002,0.197C126.501,105.81,126.565,105.687,126.619,105.667z M142.508,91.828
		c0.052,0.109-0.021,0.206,0.143,0.324l0.263-0.215c-0.139-0.095-0.056-0.169-0.085-0.25
		C142.722,91.738,142.627,91.665,142.508,91.828z M137.748,95.351c-0.034,0.071,0.114,0.16,0.152,0.235
		c0.078-0.132,0.123,0.088,0.204-0.045c-0.067-0.051-0.061-0.095,0.013-0.131l-0.118-0.144
		C137.904,95.406,137.832,95.322,137.748,95.351z M128.243,102.904l-0.218,0.175l0.158,0.194l0.214-0.178L128.243,102.904z
		 M127.798,103.585l0.121-0.098l-0.099-0.118l-0.119,0.097L127.798,103.585z M150.099,83.839c-0.107,0.106-0.207,0.146-0.29,0.037
		l-0.336,0.273c0.116,0.137,0.096,0.26-0.06,0.369c-0.064-0.103-0.147-0.011-0.206-0.152c-0.154,0.006-0.313,0.055-0.462,0.017
		l-0.528,0.432c-0.021,0.106,0.065,0.238,0.115,0.386c0.004,0.012-0.076,0.048-0.073,0.058c0.016,0.054,0.157,0.184,0.157,0.192
		c0,0.009-0.075,0.052-0.072,0.058c0.104,0.187,0.255,0.207,0.405,0.35c0.124-0.068,0.237-0.023,0.348,0.035
		c0.072-0.046,0.151-0.178,0.204-0.046l0.336-0.272c-0.025-0.276,0.194-0.525,0.018-0.814c0.234-0.149,0.446-0.064,0.692-0.326
		c-0.065-0.051-0.061-0.094,0.013-0.131C150.152,84.137,150.323,84.008,150.099,83.839z M149.484,84.701
		c-0.06,0.075-0.121,0.147-0.047,0.237l-0.144,0.12l-0.058-0.074c-0.028-0.083,0.055-0.155-0.085-0.25l0.217-0.177L149.484,84.701z
		 M113.158,114.887l-0.217,0.175l0.099,0.12C113.197,115.096,113.161,114.99,113.158,114.887z M146.701,87.171l-0.12,0.097
		l0.215,0.264c0.14-0.097,0.23-0.197,0.187-0.312C146.888,87.206,146.787,87.261,146.701,87.171z M130.297,99.79
		c0.068,0.101-0.074,0.183-0.181,0.267c0.087,0.17,0.179,0.398,0.372,0.456c0.249-0.083,0.503-0.238,0.6-0.49
		C130.859,99.602,130.583,99.654,130.297,99.79z M128.88,97.708c0.177,0.281,0.602,0.59,0.574,0.851c0.168,0,0.332,0.058,0.477,0.29
		c0.141-0.091,0.246,0.183,0.389,0.081l0.194,0.241c0.074-0.072,0.136-0.02,0.204-0.045c0.272,0.3,0.601,0.003,0.887,0.155
		c0.193-0.164,0.369-0.163,0.568-0.382l0.058,0.072c0.131-0.052,0.286-0.356,0.394-0.201c0.15-0.192,0.607-0.35,0.542-0.564
		c0.287-0.212,0.232-0.459,0.574-0.667c-0.01-0.206-0.174-0.428-0.068-0.622c-0.111-0.137-0.13-0.264-0.072-0.382
		c-0.273-0.504-0.78-1.069-1.193-1.464c-0.091,0.134-0.137-0.064-0.19-0.086c-0.023-0.008-0.058,0.049-0.091,0.035
		c-0.122-0.055-0.08-0.049-0.169-0.061c-0.104-0.017-0.197-0.069-0.259-0.069c0.026-0.066,0.061-0.127-0.045-0.204l-0.289,0.235
		c-0.2-0.187-0.442,0.023-0.645-0.154c-0.212,0.077-0.435,0.257-0.636,0.201l-0.72,0.585l-0.058-0.071l-0.407,0.332
		c0.008,0.404-0.155,0.793-0.493,1.161C128.648,97.28,128.961,97.352,128.88,97.708z M132.52,96.976l-0.071,0.061
		c-0.063-0.115-0.134-0.143-0.211-0.112c-0.035-0.186,0.185-0.347,0.165-0.533c0.068-0.092,0.111,0.068,0.164,0.106
		C132.467,96.649,132.45,96.808,132.52,96.976z M133.001,96.784l-0.119,0.097l-0.216-0.263l0.121-0.098L133.001,96.784z
		 M131.673,95.549l0.193-0.157c0.121,0.115,0.23,0.346,0.356,0.389c0.023-0.101-0.048-0.21-0.056-0.315l0.192-0.157
		c0.181,0.278,0.093,0.594-0.24,0.636C131.981,95.715,131.809,95.824,131.673,95.549z M131.455,95.965l0.192-0.157
		c0.084,0.183,0.206,0.003,0.287,0.206c-0.118,0.164-0.214,0.091-0.322,0.144L131.455,95.965z M131.684,96.54
		c0.231-0.266,0.436-0.252,0.658-0.418c0.109,0.065-0.028,0.101,0.051,0.16c-0.256,0.08-0.303,0.319-0.592,0.402L131.684,96.54z
		 M122.581,106.841c-0.063-0.098-0.144-0.026-0.218-0.022c0.037,0.063-0.087,0.108-0.017,0.174
		C122.417,107.027,122.504,106.881,122.581,106.841z M153.65,80.943c0.045,0.069-0.045,0.127,0.004,0.198
		c0.069,0.034,0.157-0.114,0.234-0.152C153.816,80.906,153.73,80.944,153.65,80.943z M149.206,82.009
		c0.068,0.103-0.075,0.184-0.181,0.269c-0.003,0.101,0.174,0.223,0.056,0.313l0.372,0.456c0.032-0.018,0.064-0.058,0.091-0.035
		c0.21,0.256,0.478-0.072,0.711-0.06c-0.137-0.115,0.141-0.19,0.206-0.286c-0.073-0.089-0.014-0.163,0.045-0.238
		c-0.121-0.137-0.249-0.275-0.202-0.395l-0.038-0.048c-0.233-0.017-0.464-0.058-0.688-0.16
		C149.447,81.949,149.32,82.049,149.206,82.009z M121.83,105.134l-0.121,0.1l0.098,0.12l0.12-0.098L121.83,105.134z M153.293,79.474
		c-0.065-0.051-0.061-0.092,0.014-0.131l-0.098-0.12l-0.12,0.098C153.157,79.367,153.21,79.567,153.293,79.474z M152.446,79.367
		l-0.144,0.117l0.117,0.144c0.051-0.064,0.095-0.061,0.131,0.014l0.144-0.118l-0.117-0.143
		C152.526,79.445,152.482,79.441,152.446,79.367z M142.028,88.103l0.336-0.272l-0.215-0.266c-0.051,0.066-0.093,0.061-0.131-0.012
		c-0.109,0.132-0.204,0.129-0.299,0.123c-0.035,0.127,0.022,0.266,0.179,0.415C141.948,88.025,141.991,88.029,142.028,88.103z
		 M147.959,81.508l0.097,0.12l0.216-0.177C148.179,81.354,148.071,81.407,147.959,81.508z M138.593,88.108
		c0.101,0.009,0.208-0.021,0.323-0.143l-0.098-0.12c-0.051,0.065-0.094,0.06-0.131-0.014l-0.121,0.097
		C138.702,88.002,138.5,88.038,138.593,88.108z M145.389,80.368c-0.159,0.085,0.098,0.214,0.144,0.321
		c0.145-0.058,0.263,0.144,0.394,0.24c0.17-0.098,0.312,0.106,0.492-0.084l0.058,0.074l0.481-0.393
		c-0.086-0.33,0.194-0.625-0.165-0.984l-0.192,0.158c0.095,0.081-0.032,0.141,0.022,0.221l-0.097,0.078l-0.157-0.19
		c0.126-0.04-0.001-0.104,0.038-0.152c0.101-0.135,0.186-0.094,0.274-0.103l0.074-0.058c-0.134-0.287-0.312-0.131-0.454-0.31
		C145.741,79.173,145.057,79.754,145.389,80.368z M149.197,76.022c0.072,0.229-0.175,0.114-0.286,0.235l-0.098-0.12
		c-0.195,0.106-0.379,0.129-0.588,0.358c0.051,0.131,0.031,0.253-0.059,0.367l0.236,0.29c0.127-0.034,0.248,0.011,0.359,0.146
		c0.365-0.137,0.793-0.518,0.505-0.852c0.09-0.086,0.037-0.186,0.051-0.279c0.037-0.048,0.171-0.086,0.08-0.146
		C149.325,76.065,149.269,75.976,149.197,76.022z M142.342,81.973c-0.045,0.075,0.023,0.163-0.134,0.227l0.157,0.192l0.143-0.117
		C142.361,82.165,142.475,82.082,142.342,81.973z M132.903,89.312l0.071-0.058c-0.068-0.045-0.122-0.244-0.204-0.154
		C132.73,89.163,132.871,89.243,132.903,89.312z M145.264,77.911l0.117,0.144c0.144-0.037,0.272,0.08,0.407,0.107
		c0.304-0.181,0.19-0.405,0.305-0.607l-0.098-0.12c-0.086,0.146-0.127-0.069-0.189-0.086c-0.068-0.017-0.199,0.131-0.243-0.003
		l-0.336,0.275C145.237,77.717,145.374,77.828,145.264,77.911z M144.517,78.76c0.081-0.064,0.151-0.057,0.218,0.022l0.144-0.117
		l-0.098-0.121c-0.123,0.046-0.24,0.037-0.359,0.052C144.374,78.642,144.497,78.706,144.517,78.76z M123.606,95.455l0.176,0.215
		l0.12-0.097c-0.134-0.072,0.069-0.111-0.026-0.18c-0.048-0.037-0.112,0.089-0.15-0.037L123.606,95.455z M149.043,71.273
		c0.032,0.129-0.011,0.249-0.147,0.359c0.068,0.124,0.022,0.238-0.035,0.349c0.207,0.169,0.037,0.298,0.261,0.467
		c0.094-0.134,0.152,0.077,0.227,0.134c0.166-0.029,0.314,0.101,0.467,0.18c0.07-0.048,0.15-0.178,0.203-0.046l0.672-0.548
		c-0.058-0.189-0.088-0.375,0.121-0.538l-0.177-0.216c-0.054,0.02-0.116,0.144-0.163,0.094l-0.197-0.241l0.074-0.057l-0.158-0.194
		c-0.078,0.121-0.13-0.025-0.189-0.084c-0.124,0.072-0.241,0.06-0.348-0.035C149.453,70.996,149.256,71.044,149.043,71.273z
		 M132.152,86.727l-0.156-0.192c-0.065,0.066-0.094,0.137-0.068,0.212C132.009,86.695,132.07,86.821,132.152,86.727z
		 M133.153,85.111c0.104-0.006,0.214-0.097,0.31-0.012l0.143-0.118c-0.017-0.126-0.045-0.252-0.202-0.395
		c-0.127,0.017-0.256,0.045-0.395,0.203C133.062,84.896,132.988,84.993,133.153,85.111z M122.555,93.236
		c0.295-0.157,0.535,0.22,0.854-0.178c0.086,0.158,0.217-0.1,0.323-0.143c-0.048-0.187,0.306-0.336,0.382-0.511
		c-0.065-0.051-0.061-0.094,0.012-0.131c-0.106-0.106-0.144-0.206-0.037-0.29c-0.098-0.141-0.144-0.278-0.09-0.406
		c-0.175-0.161-0.124-0.521-0.408-0.548c-0.033,0.071,0.116,0.158,0.154,0.237c-0.052,0.141-0.187,0.25-0.336,0.273l0.078,0.097
		c0.094-0.058,0.172,0.051,0.249,0.157c0.054-0.026,0.118-0.151,0.159-0.049c0.005,0.151-0.151,0.057-0.207,0.089
		c0.048,0.058-0.029,0.215-0.13,0.186c-0.141-0.081,0.027-0.131-0.045-0.204c-0.044-0.075-0.114,0.126-0.16,0.051
		c-0.004-0.089-0.043-0.181-0.147-0.28c0.113-0.178,0.127-0.369,0.362-0.536c-0.111-0.137-0.26,0.097-0.359-0.146
		c-0.122,0.038-0.238,0.026-0.349-0.035c-0.267,0.178-0.508,0.092-0.788,0.404c-0.001,0.206-0.066,0.404-0.281,0.588
		c0.16,0.118-0.038,0.201,0.143,0.323c-0.121,0.046,0.016,0.118-0.104,0.164c0.071,0.206,0.34,0.432,0.311,0.627
		C122.289,92.955,122.427,93.056,122.555,93.236z M122.519,93.585l0.145-0.118c-0.074-0.083-0.157-0.043-0.239-0.045
		C122.374,93.466,122.498,93.531,122.519,93.585z M144.153,75.619c-0.134-0.072,0.07-0.111-0.026-0.18
		c-0.037-0.055-0.094,0.058-0.137,0.075C144.043,75.552,144.086,75.713,144.153,75.619z M149.87,69.838l0.274,0.336
		c0.131-0.064,0.257-0.06,0.373,0.015l-0.584-0.763C149.921,69.565,149.959,69.708,149.87,69.838z M141.158,77.386
		c0.072-0.135,0.11,0.066,0.178-0.029c0.038-0.046-0.088-0.111,0.038-0.149l0.156,0.192c0.132-0.14,0.234,0.017,0.372-0.181
		c-0.051-0.094-0.042-0.181,0.025-0.261c-0.118,0.015-0.224-0.107-0.326-0.255c-0.051,0.066-0.094,0.061-0.131-0.012l-0.383,0.312
		c0.073,0.089,0.012,0.163-0.048,0.238L141.158,77.386z M139.422,76.481c-0.051-0.146-0.138,0.061-0.189-0.085
		c-0.209,0.25-0.378,0.106-0.587,0.359c0.052,0.267-0.234,0.504,0.006,0.793c-0.12,0.045,0.016,0.118-0.104,0.164l0.235,0.289
		c-0.18,0.063,0.134,0.175-0.046,0.236c0.193,0.181,0.226,0.347,0.345,0.519c0.097-0.034,0.197-0.058,0.276,0.095
		c0.146-0.103,0.269-0.209,0.254-0.327c0.081,0.129,0.205-0.147,0.286,0.008l0.526-0.432c-0.06-0.189,0.048-0.361,0.122-0.538
		l-0.118-0.144c0.147-0.088-0.072-0.212,0.075-0.299c-0.2-0.183-0.058-0.33-0.301-0.515l-0.144,0.117
		c0.067,0.109,0.081,0.215-0.076,0.3l0.216,0.264c-0.069,0.032-0.149,0.174-0.211,0.132c-0.181-0.151-0.131-0.276-0.266-0.422
		c0.184-0.178,0.146-0.381,0.214-0.571C139.761,76.464,139.612,76.266,139.422,76.481z M138.318,78.9
		c-0.049,0.046,0.074,0.111,0.094,0.163l0.144-0.117C138.483,78.865,138.398,78.902,138.318,78.9z M115.361,97.742
		c-0.064-0.049-0.061-0.094,0.014-0.129l-0.099-0.12l-0.191,0.155C115.167,97.759,115.259,97.816,115.361,97.742z M146.873,71.603
		c-0.029,0.071-0.036,0.141-0.021,0.218c0.059-0.014,0.116,0.008,0.178-0.026L146.873,71.603z M149.186,69.637
		c-0.046-0.049-0.11,0.074-0.161,0.094l0.117,0.144l0.072-0.06C149.079,69.743,149.279,69.706,149.186,69.637z M128.32,86.535
		l0.072-0.058c-0.11-0.061,0.028-0.1-0.05-0.16c-0.063,0.037-0.109-0.086-0.174-0.017c0.042,0.071-0.045,0.127,0.002,0.198
		C128.216,86.536,128.281,86.41,128.32,86.535z M143.828,72.329c-0.127,0.16-0.233,0.123-0.346,0.161
		c-0.01,0.117-0.094,0.226-0.167,0.335l0.333,0.409c0.093-0.049,0.18-0.042,0.262,0.028l0.455-0.373
		c-0.12-0.18-0.091-0.346-0.319-0.538C143.964,72.435,143.899,72.346,143.828,72.329z M147.418,69.282
		c0.104-0.092,0.183,0.078,0.28,0.049c-0.085,0.088,0.036,0.195,0.125,0.299c0.157-0.088,0.123-0.194,0.117-0.296
		c-0.076,0.031-0.147,0.005-0.209-0.111c0.276-0.19,0.276-0.412,0.023-0.656c-0.094,0.048-0.18,0.04-0.262-0.028l-0.409,0.333
		L147.418,69.282z M133.449,81.113l-0.144,0.117l0.118,0.144l0.143-0.117L133.449,81.113z M128.623,85.289l0.215-0.177
		c-0.132-0.092-0.055-0.166-0.127-0.255c-0.11,0.132-0.207,0.131-0.299,0.123c0.042,0.071-0.046,0.129,0.002,0.2
		C128.49,85.149,128.562,85.176,128.623,85.289z M133.909,80.06l0.038,0.048c0.167,0.031,0.4,0.187,0.475-0.106l-0.275-0.336
		C133.963,79.786,133.85,79.914,133.909,80.06z M146.726,68.287l-0.118-0.143c-0.085,0.127-0.147,0.022-0.231,0.107l0.098,0.12
		c0.051-0.066,0.095-0.061,0.131,0.012L146.726,68.287z M144.639,69.109l0.373,0.456c0.051-0.066,0.095-0.061,0.131,0.015
		l0.455-0.373c-0.207-0.169-0.036-0.298-0.261-0.468l0.121-0.095l-0.157-0.194C145.031,68.665,144.735,68.877,144.639,69.109z
		 M116.342,93.067l0.384-0.313c-0.17-0.143,0.005-0.25-0.201-0.395c-0.11,0.064-0.2-0.049-0.301-0.075l-0.312,0.253
		c0.099,0.174,0.051,0.266,0.201,0.396C116.104,92.924,116.364,92.932,116.342,93.067z M142.399,70.577
		c-0.143,0.121-0.355,0.132-0.446,0.284c-0.057,0.092,0.069,0.177-0.048,0.238c0.122,0.253,0.283,0.111,0.405,0.347
		c0.091-0.1,0.176-0.144,0.243,0.005l0.385-0.313c-0.076-0.161-0.141-0.322-0.151-0.478
		C142.643,70.78,142.523,70.661,142.399,70.577z M137.068,75.604l-0.098-0.12l-0.216,0.175c0.049,0.108,0.127-0.084,0.17,0.061
		L137.068,75.604z M118.913,90.092l0.097,0.12c0.112-0.077,0.14-0.161,0.114-0.252C119.061,89.92,118.98,90.06,118.913,90.092z
		 M121.683,87.513c-0.047-0.052-0.111,0.071-0.163,0.092l0.116,0.144l0.072-0.058C121.575,87.618,121.778,87.581,121.683,87.513z
		 M139.001,72.829c-0.051-0.174,0.062-0.33-0.19-0.527c-0.107,0.046-0.21,0.058-0.302-0.074c-0.048,0.066-0.094,0.061-0.129-0.012
		c-0.146,0.206-0.253,0.032-0.395,0.201c-0.019,0.266,0.18,0.507,0.442,0.639C138.628,72.898,138.795,73.054,139.001,72.829z
		 M139.583,70.797l-0.177-0.217c-0.095,0.132-0.167,0.055-0.256,0.127c-0.002,0.095,0.065,0.198,0.168,0.304L139.583,70.797z
		 M143.067,67.035c-0.114-0.144-0.226-0.287-0.133-0.41l-0.176-0.217c-0.106,0.091-0.185-0.066-0.278-0.094
		c-0.201,0.1-0.396,0.147-0.61,0.378c0.108,0.217-0.061,0.405,0.199,0.636c0.16-0.063,0.297,0.106,0.446,0.155
		c0.19-0.218,0.345-0.072,0.539-0.318C142.988,67.114,142.993,67.071,143.067,67.035z M140.294,68.975
		c-0.098-0.175-0.214-0.19-0.334-0.166c0.048,0.094,0.04,0.18-0.026,0.261C140.046,69.121,140.161,69.129,140.294,68.975z
		 M133.695,73.28c-0.054,0.012-0.099-0.048-0.155,0.006c-0.029,0.04,0.041,0.092-0.057,0.127l0.117,0.143l0.144-0.118
		C133.635,73.377,133.772,73.34,133.695,73.28z M125.082,80.262l-0.097-0.12l-0.193,0.158l0.098,0.12
		c0.073-0.135,0.111,0.069,0.179-0.028C125.003,80.344,125.008,80.299,125.082,80.262z M133.818,72.061
		c0.11-0.084,0.201,0.074,0.301,0.074c0.065,0,0.132-0.183,0.18-0.026l0.407-0.332c-0.103-0.209,0.089-0.389,0.082-0.587
		c-0.114,0.086-0.12-0.083-0.209-0.109c-0.071-0.023-0.366,0.097-0.408-0.109c-0.051,0.068-0.094,0.063-0.131-0.011
		c-0.172,0.172-0.321,0.118-0.496,0.323c-0.008,0.124,0.026,0.252-0.058,0.367L133.818,72.061z M143.036,64.742
		c-0.013-0.068-0.035-0.135,0.084-0.189l-0.098-0.121l-0.265,0.215l0.099,0.121C142.929,64.633,142.968,64.837,143.036,64.742z
		 M138.282,68.419c0.093-0.066,0.167-0.144,0.216-0.175c0.227-0.135,0.187-0.135,0.326-0.386c-0.129-0.117-0.164-0.223-0.144-0.324
		l-0.038-0.048c-0.148,0.012-0.284-0.097-0.415-0.261c-0.049,0.065-0.094,0.06-0.131-0.014c-0.233,0.281-0.427,0.169-0.658,0.418
		c0.049,0.094,0.039,0.181-0.025,0.26l0.331,0.41C137.938,68.189,138.111,68.298,138.282,68.419z M137.78,68.588l-0.144,0.118
		l0.157,0.19l0.192-0.157C137.926,68.597,137.844,68.691,137.78,68.588z M139.543,66.829c0.163,0.074,0.328,0.101,0.491,0.16
		l0.384-0.312c-0.128-0.115-0.162-0.223-0.144-0.323c-0.129-0.017-0.262-0.015-0.379-0.17c-0.184,0.147-0.342,0.048-0.518,0.101
		c-0.038,0.048,0.088,0.112-0.036,0.151C139.394,66.565,139.698,66.72,139.543,66.829z M140.099,66.138
		c0.103-0.006,0.214-0.097,0.309-0.012c0.253-0.121,0.177-0.276,0.349-0.404c-0.078-0.177,0.034-0.335-0.189-0.525
		c-0.132,0.071-0.252,0.026-0.36-0.147c-0.24-0.022-0.668,0.264-0.802,0.534l0.333,0.409
		C139.867,65.956,139.983,66.043,140.099,66.138z M125.961,77.909l0.12-0.098l-0.176-0.215c-0.04,0.028-0.081,0.071-0.111,0.009
		c-0.09,0.043,0.038,0.107-0.081,0.147l0.117,0.143C125.88,77.831,125.924,77.836,125.961,77.909z M129.517,73.449
		c-0.167,0.209-0.298,0.038-0.467,0.261c0.041,0.31,0.374,0.349,0.561,0.542c0.107-0.043,0.236-0.301,0.323-0.143l0.143-0.118
		c-0.028-0.232-0.088-0.386-0.318-0.538C129.674,73.497,129.588,73.541,129.517,73.449z M137.514,65.568l0.04,0.048
		c0.118-0.078,0.207,0.124,0.307,0.229l-0.144,0.117c0.144,0.493,0.66,0.601,1.028,0.281c0.018-0.137-0.044-0.468-0.28-0.49
		c0.056-0.083-0.08-0.184-0.149-0.28c0.121-0.046-0.015-0.118,0.105-0.166l-0.234-0.287c-0.125,0.071-0.24,0.058-0.349-0.035
		l-0.336,0.273C137.594,65.37,137.463,65.459,137.514,65.568z M127.453,75.132c-0.134-0.072,0.069-0.111-0.025-0.177
		c-0.105,0.025-0.202-0.046-0.309,0.012c-0.026,0.077-0.021,0.16,0.084,0.25C127.299,75.056,127.361,75.238,127.453,75.132z
		 M130.91,71.875l0.192-0.157l-0.177-0.217c-0.101,0.052-0.194,0.035-0.303,0.167C130.706,71.85,130.828,71.671,130.91,71.875z
		 M142.658,61.094c0.227,0.29,0.493,0.197,0.769,0.012c-0.049-0.095-0.041-0.181,0.026-0.263c-0.137-0.24-0.294-0.283-0.444-0.398
		c-0.18,0.18-0.336,0.134-0.501,0.17c0.077,0.118-0.124,0.207-0.23,0.306c0.065,0.052,0.06,0.095-0.014,0.131l0.098,0.121
		l0.144-0.118C142.548,61.18,142.611,61.055,142.658,61.094z M131.669,69.817c0.137-0.026,0.281-0.114,0.225-0.264
		c-0.094-0.012-0.196,0.04-0.281-0.049C131.587,69.603,131.531,69.699,131.669,69.817z M127.21,72.534l-0.336,0.273
		c0.11,0.063-0.028,0.1,0.05,0.16c0.123,0.017,0.231,0.178,0.356,0.189c0.232-0.1,0.081-0.24,0.276-0.346
		C127.456,72.578,127.316,72.727,127.21,72.534z M130.34,69.901c-0.031,0.041,0.04,0.092-0.058,0.127l0.117,0.143
		c0.06-0.089,0.303-0.16,0.225-0.261C130.525,69.957,130.442,69.838,130.34,69.901z M115.855,82.033l-0.117-0.144l-0.095,0.078
		c0.043,0.072-0.045,0.129,0.001,0.2C115.706,82.205,115.786,82.065,115.855,82.033z M135.876,65.028
		c0.131-0.071,0.263-0.134,0.381-0.072c0.238-0.114,0.088-0.27,0.326-0.385c-0.049-0.092-0.04-0.18,0.026-0.261
		c-0.121-0.094-0.224-0.393-0.361-0.344c-0.038,0.048,0.088,0.111-0.037,0.149l-0.119-0.143c0.15-0.066-0.042-0.166-0.084-0.25
		c-0.13,0.054-0.248-0.012-0.369-0.06l-0.407,0.332c0.084,0.111-0.074,0.203-0.074,0.301c-0.001,0.065,0.183,0.132,0.025,0.18
		l0.392,0.479C135.684,64.888,135.775,65,135.876,65.028z M136.32,64.103l0.177,0.217l-0.121,0.098
		c-0.085-0.092-0.186-0.037-0.281-0.051C136.018,64.263,136.261,64.194,136.32,64.103z M117.454,80.17
		c0.117-0.127,0.222-0.163,0.323-0.143c-0.137-0.101,0.098-0.166,0.157-0.249c-0.104-0.163-0.058-0.313-0.062-0.468
		c-0.094,0.06-0.172-0.049-0.249-0.157c-0.131,0.054-0.247-0.011-0.367-0.06c-0.12,0.103-0.243,0.22-0.351,0.207
		c0.034,0.083-0.093,0.152-0.178,0.224c0.065,0.051,0.062,0.094-0.012,0.131l0.391,0.479
		C117.23,80.067,117.343,80.113,117.454,80.17z M140.868,60.956c-0.075-0.124,0.041-0.232,0.035-0.349
		c-0.124-0.161-0.247-0.319-0.382-0.369c-0.18,0.12-0.346,0.092-0.538,0.319c0.12,0.18,0.094,0.347,0.32,0.538
		C140.486,61.102,140.681,60.993,140.868,60.956z M113.124,83.144l0.12-0.098l-0.155-0.194c-0.109,0.049,0.083,0.127-0.062,0.17
		l-0.117-0.144l-0.144,0.118l0.117,0.143C112.968,83.098,113.052,83.051,113.124,83.144z M133.569,65.63
		c-0.048-0.04-0.111,0.086-0.149-0.037l-0.122,0.097l0.159,0.192C133.492,65.797,133.599,65.722,133.569,65.63z M137.737,61.872
		c-0.073,0.134-0.111-0.069-0.178,0.025c-0.039,0.049,0.086,0.112-0.039,0.151l0.098,0.12l0.145-0.117
		C137.63,61.976,137.832,61.939,137.737,61.872z M133.374,64.95l-0.099-0.12l-0.143,0.117c0.066,0.051,0.061,0.095-0.013,0.131
		l0.098,0.12l0.144-0.117C133.296,65.028,133.3,64.985,133.374,64.95z M134.704,63.346l-0.121,0.098l0.098,0.118l0.119-0.097
		L134.704,63.346z M129.066,67.264c0.044,0.069-0.043,0.126,0.002,0.197l0.144-0.117C129.165,67.309,129.128,67.172,129.066,67.264z
		 M131.107,65.599l0.144-0.117c-0.034-0.147-0.079-0.203-0.217-0.266l-0.263,0.216C130.869,65.627,131.001,65.486,131.107,65.599z
		 M115.869,77.786c0.298-0.107,0.212-0.378,0.299-0.564c-0.131-0.109-0.131-0.203-0.123-0.298c-0.078,0.031-0.147,0.005-0.21-0.111
		l-0.407,0.333c0.064,0.109-0.049,0.2-0.074,0.301l0.273,0.336C115.726,77.694,115.795,77.814,115.869,77.786z M136.174,60.787
		c0.12-0.164,0.216-0.089,0.323-0.143c-0.12-0.078,0.026-0.131,0.085-0.19c-0.16-0.118,0.039-0.201-0.143-0.321
		c-0.149,0.009-0.305,0.111-0.432-0.089l-0.265,0.215c0.045,0.114,0.025,0.223,0.075,0.338
		C135.94,60.628,136.07,60.585,136.174,60.787z M125.58,69.307l-0.121,0.098l0.118,0.144l0.12-0.097L125.58,69.307z M122.289,71.792
		l-0.144,0.117l0.157,0.192l0.144-0.118L122.289,71.792z M126.899,67.791c-0.081,0.088-0.144-0.022-0.231,0.109l0.157,0.192
		l0.194-0.157L126.899,67.791z M133.151,62.813c-0.146-0.295-0.338-0.14-0.515-0.14c-0.031,0.121,0.077,0.256,0.204,0.395
		L133.151,62.813z M136.057,59.565c0.115-0.128,0.22-0.163,0.321-0.143c-0.119-0.078,0.027-0.131,0.086-0.19
		c-0.095-0.261-0.154-0.335-0.392-0.479c-0.106,0.106-0.206,0.146-0.29,0.037l-0.216,0.177c0.12,0.1-0.048,0.17,0.017,0.266
		C135.76,59.155,135.888,59.559,136.057,59.565z M135.854,59.172l0.144-0.118l0.157,0.192c-0.071,0.107-0.114-0.038-0.184,0.068
		L135.854,59.172z M121.259,71.752c-0.054-0.037-0.098-0.198-0.166-0.103c0.045,0.069-0.044,0.126,0.002,0.197
		C121.141,71.896,121.205,71.773,121.259,71.752z M126.878,66.931l0.071-0.058c-0.069-0.045-0.121-0.246-0.203-0.154
		C126.706,66.78,126.845,66.862,126.878,66.931z M125.73,67.187l-0.193,0.158l0.117,0.143l0.193-0.157L125.73,67.187z
		 M120.365,70.803l0.144-0.117c-0.033-0.146-0.078-0.201-0.215-0.264l-0.217,0.177l0.078,0.095
		C120.233,70.661,120.303,70.689,120.365,70.803z M129.881,62.723l-0.118-0.143l-0.192,0.157
		C129.697,62.939,129.826,62.887,129.881,62.723z M129.413,62.984c-0.134-0.072,0.068-0.109-0.026-0.178
		c-0.083,0.018-0.157-0.025-0.25,0.085C129.221,62.999,129.311,63.057,129.413,62.984z M116.154,73.676l0.144-0.117l-0.097-0.12
		c-0.072,0.134-0.111-0.069-0.18,0.026c0.045,0.071-0.043,0.127,0.003,0.198C116.075,73.598,116.118,73.603,116.154,73.676z
		 M125.601,64.974c0.002,0.001,0.074-0.042,0.092-0.035c0.087,0.034,0.064,0.138,0.137,0.169c0.111-0.078,0.205-0.006,0.295,0.117
		c0.143-0.169,0.25,0.008,0.396-0.201c-0.022-0.149,0.047-0.289,0.218-0.418c-0.05-0.131-0.03-0.253,0.059-0.369
		c-0.101-0.114-0.154-0.221-0.056-0.313l-0.431-0.527c-0.032,0.018-0.064,0.058-0.091,0.032c-0.198-0.21-0.434-0.052-0.65-0.109
		l-0.527,0.43c0.141,0.08-0.045,0.106-0.062,0.17c-0.012,0.049,0.048,0.19,0.046,0.203c-0.002,0.018-0.074,0.04-0.072,0.058
		c0.001,0.054,0.174,0.137,0.026,0.178l0.392,0.481C125.486,64.716,125.536,64.933,125.601,64.974z M126.132,63.861l0.264-0.215
		c0.085,0.141,0.023,0.267,0.005,0.396c0.059,0.143,0.163-0.163,0.222-0.02c-0.117,0.129-0.22,0.143-0.327,0.186
		C126.133,64.082,126.171,63.976,126.132,63.861z M127.004,64.389l0.143-0.117l-0.117-0.143l-0.144,0.117L127.004,64.389z
		 M123.918,66.587c-0.12-0.078,0.027-0.129,0.087-0.189l-0.118-0.146c-0.069,0.107-0.117,0.001-0.17-0.061
		c-0.121,0.184-0.204-0.017-0.323,0.144c0.141,0.094,0.055,0.167,0.085,0.25C123.638,66.476,123.762,66.68,123.918,66.587z
		 M114.262,74.102c-0.01-0.06,0.057-0.112-0.026-0.178l-0.118,0.098C114.164,74.057,114.202,74.192,114.262,74.102z M116.914,71.62
		l-0.156-0.192l-0.121,0.098l0.098,0.118C116.807,71.512,116.844,71.714,116.914,71.62z M121.813,67.384
		c0.076-0.161,0.152-0.121,0.296-0.321c-0.032-0.184-0.277-0.485-0.45-0.553c-0.118,0.151-0.21,0.037-0.328,0.187
		c0.048,0.224-0.023,0.438,0.239,0.685C121.658,67.316,121.734,67.37,121.813,67.384z M116.679,69.812l-0.156-0.192
		c-0.172,0.121-0.289,0.25-0.107,0.409L116.679,69.812z M120.801,65.212c-0.062,0.109-0.101-0.028-0.159,0.049l0.157,0.192
		l0.119-0.097L120.801,65.212z M126.759,58.356l-0.159-0.192l-0.143,0.118c0.087,0.081-0.02,0.144,0.11,0.23L126.759,58.356z
		 M117.94,122.416c0.021,0.009,0.057-0.051,0.091-0.034c0.159,0.071,0.101,0.028,0.302,0.074c0.155,0.035,0.25,0.115,0.401-0.048
		c0.062,0.181,0.174-0.135,0.236,0.046l0.599-0.488c-0.137-0.118,0.143-0.192,0.207-0.287c-0.078-0.229,0.182-0.424-0.109-0.671
		l0.073-0.06c-0.23-0.215-0.276-0.41-0.378-0.611c-0.091,0.101-0.178,0.146-0.242-0.002c-0.178,0.063-0.013,0.16-0.134,0.227
		c0.127-0.02,0.237,0.132,0.346,0.278c-0.087,0.045-0.033,0.215-0.17,0.181c-0.008-0.111-0.062-0.227-0.077-0.338
		c-0.145,0.045,0.045,0.121-0.06,0.17c-0.177-0.138-0.081-0.3-0.256-0.312c0.028-0.049-0.019-0.106-0.007-0.157l0.24-0.195
		c-0.217-0.243-0.461-0.22-0.693-0.313c-0.407,0.28-0.723,0.316-1.044,0.731c0.082,0.235-0.072,0.448-0.133,0.67
		c0.111,0.137,0.128,0.261,0.071,0.379l0.548,0.674C117.837,122.192,117.887,122.395,117.94,122.416z M130.252,92.433
		c0.197,0.31,0.419,0.353,0.617,0.657c0.083-0.14,0.135,0.063,0.19,0.084c0.021,0.009,0.055-0.049,0.089-0.034
		c0.137,0.06,0.149,0.043,0.268,0.181c0.121-0.038,0.237-0.028,0.349,0.035l0.144-0.118c0.046,0.121,0.12-0.015,0.164,0.104
		c0.201-0.169,0.366,0.012,0.58-0.272c0.061,0.181,0.174-0.134,0.237,0.048l0.336-0.275c-0.117-0.157,0.253-0.266,0.349-0.404
		c-0.025-0.035-0.052-0.061-0.035-0.092c0.137-0.238,0.397-0.421,0.314-0.694l0.191-0.157c-0.068-0.124-0.022-0.237,0.036-0.349
		c-0.178-0.18-0.012-0.324-0.213-0.507l0.071-0.058l-0.215-0.263c0.038-0.055,0.198-0.097,0.104-0.166
		c-0.182,0.049-0.031-0.037-0.117-0.144c-0.098,0.218-0.117,0.442-0.046,0.677c-0.152,0.081-0.055,0.303-0.273,0.303l-0.137-0.167
		c0.196-0.326,0.198-0.671,0.299-1.005c-0.059,0.015-0.116-0.008-0.177,0.026c-0.191,0.223-0.426,0.558-0.666,0.702
		c-0.131-0.131-0.016-0.237-0.051-0.358c0.339-0.184,0.303-0.409,0.589-0.599c0.055,0.037,0.097,0.198,0.164,0.104
		c0.041-0.063-0.101-0.141-0.132-0.212c-0.129,0.194-0.223,0.034-0.321-0.098l-0.263,0.215l-0.157-0.192
		c0.111-0.092,0.001-0.204,0.075-0.301c-0.14-0.028-0.097-0.071-0.157-0.192c-0.045,0.077,0.023,0.164-0.133,0.229L132.208,89
		c-0.157,0.057-0.045,0.141-0.11,0.209c-0.06-0.058-0.134,0.018-0.193-0.043c-0.007-0.081,0.096-0.151,0.045-0.237
		c-0.286,0.128-0.552,0.094-0.848,0.332c-0.068-0.192-0.193,0.166-0.262-0.026l-0.528,0.43l-0.059-0.071l-0.408,0.332
		c0.145,0.078-0.048,0.107-0.061,0.17c-0.021,0.098,0.117,0.218,0.012,0.309l0.177,0.217c-0.269,0.192-0.002,0.439-0.242,0.634
		c0.084,0.207-0.157,0.381,0.051,0.601l-0.074,0.058l0.45,0.551C130.191,92.448,130.225,92.408,130.252,92.433z M136.073,89.083
		c0.294-0.068,0.653-0.253,0.85-0.573c-0.157-0.178-0.096-0.61-0.392-0.481c0.045,0.146,0.123-0.043,0.17,0.061
		c-0.028,0.086-0.023,0.174-0.157,0.247l-0.215-0.263l0.143-0.117c-0.114-0.229-0.28,0.008-0.405-0.107
		c-0.308,0.16-0.252,0.355-0.496,0.522c0.14,0.189,0.253,0.376,0.253,0.553l0.041,0.048
		C135.941,88.943,136.011,88.969,136.073,89.083z M115.814,88.742l-0.118-0.143c-0.18,0.123-0.352,0.131-0.525,0.189
		c0.136,0.103,0.29,0.026,0.426,0.131L115.814,88.742z M122.424,65.687c-0.137-0.154,0.073-0.272-0.021-0.422
		c-0.121,0.069,0.044,0.166-0.135,0.23l-0.177-0.217c0.179-0.063,0.013-0.16,0.134-0.229c-0.154-0.085-0.325,0.021-0.479-0.049
		l-0.337,0.275c0.06,0.129,0,0.249-0.015,0.372c0.137,0.169,0.27,0.366,0.419,0.416C122.015,65.965,122.212,65.917,122.424,65.687z
		 M137.689,99.395c-0.068,0.132-0.121-0.031-0.216-0.023c-0.12,0.012-0.28,0.21-0.407,0.092c-0.167,0.137-0.337,0.298-0.481,0.194
		l-0.601,0.488c0.079,0.112,0.005,0.207-0.118,0.296c0.015,0.147-0.037,0.29-0.087,0.432c0.133,0.109,0.017,0.194,0.167,0.304
		c-0.133,0.132,0.117,0.304,0,0.439c0.12,0.152,0.297,0.309,0.241,0.442l0.038,0.048c0.103-0.066,0.184,0.077,0.267,0.181
		c0.186-0.023,0.359,0.086,0.529,0.209c0.137-0.117,0.26-0.097,0.369,0.058c0.141-0.02,0.286-0.065,0.42-0.022
		c0.107-0.045,0.236-0.303,0.323-0.146c0.317-0.194,0.417-0.412,0.614-0.617c-0.125-0.101,0.123-0.164,0.027-0.263
		c0.299-0.27,0.004-0.602,0.155-0.886c-0.239-0.375-0.508-0.789-0.86-1.055C137.928,99.647,137.802,99.575,137.689,99.395z
		 M138.054,100.776c-0.104,0.077,0.027,0.178-0.156,0.247l-0.118-0.143c0.066-0.068,0.093-0.138,0.066-0.215
		c-0.061-0.037-0.141,0.101-0.212,0.134l-0.117-0.144l0.264-0.215c0.034,0.098,0.085,0.028,0.126,0.057
		C137.911,100.585,137.951,100.676,138.054,100.776z M137.771,100.327l-0.099-0.12c-0.042,0.077-0.012,0.161-0.046,0.238
		c-0.06,0.078-0.096-0.058-0.159,0.049l-0.117-0.143c0.305-0.132,0.067-0.316,0.31-0.453l0.157,0.192
		c0.157-0.064,0.088-0.152,0.134-0.229c0.038,0.124,0.101-0.002,0.148,0.037C138.175,100.061,137.925,100.189,137.771,100.327z
		 M142.884,63.427c-0.109,0.054-0.204-0.02-0.323,0.143c0.015,0.126,0.045,0.253,0.202,0.395c0.126-0.014,0.254-0.043,0.395-0.201
		L142.884,63.427z M133.263,70.155c0.167-0.049,0.324-0.011,0.48,0.048c0.153-0.1,0.242-0.209,0.296-0.321
		c-0.181-0.129,0.02-0.218-0.163-0.347c-0.141,0.025-0.275-0.035-0.407-0.107c-0.166,0.123-0.352,0.131-0.407,0.332
		C133.231,69.901,133.056,70.009,133.263,70.155z M140.324,62.839c0.058,0.092-0.048,0.17-0.158,0.246
		c0.066,0.052,0.062,0.095-0.012,0.132c0.207,0.144,0.032,0.252,0.202,0.395c0.185-0.023,0.359,0.085,0.531,0.206
		c0.112-0.111,0.212-0.077,0.309-0.011l0.455-0.372c-0.005-0.104-0.098-0.217-0.012-0.31l-0.332-0.407
		c-0.192,0.081-0.359-0.091-0.539-0.121C140.615,62.716,140.457,62.894,140.324,62.839z M141.181,63.497l-0.144,0.118l-0.117-0.144
		l0.144-0.118L141.181,63.497z M137.312,60.419c0.061,0.203,0.272,0.213,0.307,0.23c0.04,0.015,0.057,0.106,0.097,0.118
		c0,0,0.295-0.015,0.243,0.003c0.371-0.131,0.521-0.863,0.119-1.176c-0.124-0.008-0.251,0.025-0.368-0.06l-0.263,0.217
		c0.029,0.124,0.04,0.223,0.007,0.352C137.427,60.217,137.297,60.37,137.312,60.419z M137.338,59.079l0.264-0.217
		c-0.064-0.049-0.061-0.094,0.014-0.131l-0.157-0.192c-0.159,0.054-0.292-0.158-0.455-0.069c-0.028,0.107-0.104,0.21-0.143,0.316
		l0.157,0.192C137.135,58.909,137.229,59.07,137.338,59.079z"/>
</g>
</svg>
